<?xml version="1.0" encoding="UTF-8" standalone="no"?>
<svg
   xmlns:dc="http://purl.org/dc/elements/1.1/"
   xmlns:cc="http://creativecommons.org/ns#"
   xmlns:rdf="http://www.w3.org/1999/02/22-rdf-syntax-ns#"
   xmlns:svg="http://www.w3.org/2000/svg"
   xmlns="http://www.w3.org/2000/svg"
   xmlns:sodipodi="http://sodipodi.sourceforge.net/DTD/sodipodi-0.dtd"
   xmlns:inkscape="http://www.inkscape.org/namespaces/inkscape"
   inkscape:export-ydpi="32.759998"
   inkscape:export-xdpi="32.759998"
   inkscape:export-filename="C:\Users\dimh\work\terracotta\docs\_figures\logo-banner-700px.png"
   inkscape:version="1.0 (4035a4fb49, 2020-05-01)"
   height="167.53334"
   width="699.83246"
   sodipodi:docname="logo-banner.svg"
   xml:space="preserve"
   viewBox="0 0 2099.4974 502.60001"
   y="0px"
   x="0px"
   id="Layer_1"
   version="1.1"><metadata
     id="metadata291"><rdf:RDF><cc:Work
         rdf:about=""><dc:format>image/svg+xml</dc:format><dc:type
           rdf:resource="http://purl.org/dc/dcmitype/StillImage" /><dc:title></dc:title></cc:Work></rdf:RDF></metadata><defs
     id="defs289"><rect
       id="rect1020"
       height="240.0462"
       width="1386.6325"
       y="111.36736"
       x="668.84136" /><rect
       id="rect1008"
       height="146.9858"
       width="1487.8593"
       y="190.2695"
       x="587.63805" /><rect
       x="668.84137"
       y="111.36736"
       width="1386.6324"
       height="240.0462"
       id="rect1020-4" /><rect
       x="668.84137"
       y="111.36736"
       width="1386.6324"
       height="240.0462"
       id="rect1037" /></defs><sodipodi:namedview
     showguides="false"
     inkscape:document-rotation="0"
     scale-x="3"
     inkscape:current-layer="Layer_1"
     inkscape:window-maximized="1"
     inkscape:window-y="0"
     inkscape:window-x="0"
     inkscape:cy="63.826138"
     inkscape:cx="415.79722"
     inkscape:zoom="1.7433396"
     inkscape:pagecheckerboard="false"
     fit-margin-left="8"
     fit-margin-bottom="8"
     fit-margin-right="8"
     fit-margin-top="8"
     showgrid="false"
     id="namedview287"
     inkscape:window-height="1378"
     inkscape:window-width="2560"
     inkscape:pageshadow="2"
     inkscape:pageopacity="0"
     guidetolerance="10"
     gridtolerance="10"
     objecttolerance="10"
     borderopacity="1"
     bordercolor="#666666"
     pagecolor="#ffffff" /><style
     id="style2"
     type="text/css">
	.st0{fill:#808285;}
	.st1{fill:#EECEB6;}
	.st2{fill:#FDEBD9;}
	.st3{fill:#F5E4D6;}
	.st4{fill:#FBDABB;}
	.st5{fill:#63CCEE;}
	.st6{fill:#E8BA98;}
	.st7{fill:#F4AA69;}
	.st8{fill:#DB9364;}
	.st9{fill:#F6B982;}
	.st10{fill:#00A4DA;}
	.st11{fill:#008ED0;}
	.st12{fill:#00B1BB;}
	.st13{fill:#4FC4CA;}
	.st14{fill:#2AB8EA;}
	.st15{fill:#47B7B6;}
</style><g
     transform="matrix(1.4430176,0,0,1.4430176,-242.80376,-200.37193)"
     id="g4962" /><g
     transform="translate(-291.1,-34.4)"
     id="g282"><g
       id="g90"><polygon
         class="st1"
         points="315.1,201.7 315.1,157.3 344.6,143.7 344.6,188.1 "
         id="polygon26"
         style="fill:#eeceb6" /><polygon
         class="st2"
         points="315.1,246.2 315.1,201.7 344.6,188.1 344.6,232.6 "
         id="polygon28"
         style="fill:#fdebd9" /><polygon
         class="st3"
         points="344.6,188.1 344.6,143.7 374.1,130.1 374.1,174.6 "
         id="polygon30"
         style="fill:#f5e4d6" /><polygon
         class="st4"
         points="344.6,232.6 344.6,188.1 374.1,174.6 374.1,219 "
         id="polygon32"
         style="fill:#fbdabb" /><polygon
         class="st1"
         points="374.1,174.6 374.1,130.1 403.5,116.5 403.5,161 "
         id="polygon34"
         style="fill:#eeceb6" /><polygon
         class="st2"
         points="374.1,219 374.1,174.6 403.5,161 403.5,205.4 "
         id="polygon36"
         style="fill:#fdebd9" /><polygon
         class="st3"
         points="403.5,161 403.5,116.5 433,102.9 433,147.4 "
         id="polygon38"
         style="fill:#f5e4d6" /><polygon
         class="st4"
         points="403.5,205.4 403.5,161 433,147.4 433,191.8 "
         id="polygon40"
         style="fill:#fbdabb" /><polygon
         class="st1"
         points="315.1,290.7 315.1,246.2 344.6,232.6 344.6,277.1 "
         id="polygon42"
         style="fill:#eeceb6" /><polygon
         class="st2"
         points="315.1,335.1 315.1,290.7 344.6,277.1 344.6,321.5 "
         id="polygon44"
         style="fill:#fdebd9" /><polygon
         class="st3"
         points="344.6,277.1 344.6,232.6 374.1,219 374.1,263.5 "
         id="polygon46"
         style="fill:#f5e4d6" /><polygon
         class="st4"
         points="344.6,321.5 344.6,277.1 374.1,263.5 374.1,307.9 "
         id="polygon48"
         style="fill:#fbdabb" /><polygon
         class="st1"
         points="374.1,263.5 374.1,219 403.5,205.4 403.5,249.9 "
         id="polygon50"
         style="fill:#eeceb6" /><polygon
         class="st2"
         points="374.1,307.9 374.1,263.5 403.5,249.9 403.5,294.3 "
         id="polygon52"
         style="fill:#fdebd9" /><polygon
         class="st5"
         points="403.5,249.9 403.5,205.4 433,191.8 433,236.3 "
         id="polygon54"
         style="fill:#63ccee" /><polygon
         class="st4"
         points="403.5,294.3 403.5,249.9 433,236.3 433,280.7 "
         id="polygon56"
         style="fill:#fbdabb" /><polygon
         class="st1"
         points="315.1,379.6 315.1,335.1 344.6,321.5 344.6,366 "
         id="polygon58"
         style="fill:#eeceb6" /><polygon
         class="st2"
         points="315.1,424 315.1,379.6 344.6,366 344.6,410.5 "
         id="polygon60"
         style="fill:#fdebd9" /><polygon
         class="st3"
         points="344.6,366 344.6,321.5 374.1,307.9 374.1,352.4 "
         id="polygon62"
         style="fill:#f5e4d6" /><polygon
         class="st4"
         points="344.6,410.5 344.6,366 374.1,352.4 374.1,396.9 "
         id="polygon64"
         style="fill:#fbdabb" /><polygon
         class="st1"
         points="374.1,352.4 374.1,307.9 403.5,294.3 403.5,338.8 "
         id="polygon66"
         style="fill:#eeceb6" /><polygon
         class="st2"
         points="374.1,396.9 374.1,352.4 403.5,338.8 403.5,383.3 "
         id="polygon68"
         style="fill:#fdebd9" /><polygon
         class="st3"
         points="403.5,338.8 403.5,294.3 433,280.7 433,325.2 "
         id="polygon70"
         style="fill:#f5e4d6" /><polygon
         class="st4"
         points="403.5,383.3 403.5,338.8 433,325.2 433,369.7 "
         id="polygon72"
         style="fill:#fbdabb" /><polygon
         class="st1"
         points="315.1,468.5 315.1,424 344.6,410.5 344.6,454.9 "
         id="polygon74"
         style="fill:#eeceb6" /><polygon
         class="st2"
         points="315.1,513 315.1,468.5 344.6,454.9 344.6,499.4 "
         id="polygon76"
         style="fill:#fdebd9" /><polygon
         class="st3"
         points="344.6,454.9 344.6,410.5 374.1,396.9 374.1,441.3 "
         id="polygon78"
         style="fill:#f5e4d6" /><polygon
         class="st4"
         points="344.6,499.4 344.6,454.9 374.1,441.3 374.1,485.8 "
         id="polygon80"
         style="fill:#fbdabb" /><polygon
         class="st1"
         points="374.1,441.3 374.1,396.9 403.5,383.3 403.5,427.7 "
         id="polygon82"
         style="fill:#eeceb6" /><polygon
         class="st2"
         points="374.1,485.8 374.1,441.3 403.5,427.7 403.5,472.2 "
         id="polygon84"
         style="fill:#fdebd9" /><polygon
         class="st3"
         points="403.5,427.7 403.5,383.3 433,369.7 433,414.1 "
         id="polygon86"
         style="fill:#f5e4d6" /><polygon
         class="st4"
         points="403.5,472.2 403.5,427.7 433,414.1 433,458.6 "
         id="polygon88"
         style="fill:#fbdabb" /></g><g
       id="g156"><polygon
         class="st6"
         points="433,147.4 433,102.9 462.5,116.5 462.5,161 "
         id="polygon92"
         style="fill:#e8ba98" /><polygon
         class="st7"
         points="433,191.8 433,147.4 462.5,161 462.5,205.4 "
         id="polygon94"
         style="fill:#f4aa69" /><polygon
         class="st8"
         points="462.5,161 462.5,116.5 492,130.1 492,174.6 "
         id="polygon96"
         style="fill:#db9364" /><polygon
         class="st9"
         points="462.5,205.4 462.5,161 492,174.6 492,219 "
         id="polygon98"
         style="fill:#f6b982" /><polygon
         class="st6"
         points="492,174.6 492,130.1 521.5,143.7 521.5,188.1 "
         id="polygon100"
         style="fill:#e8ba98" /><polygon
         class="st7"
         points="492,219 492,174.6 521.5,188.1 521.5,232.6 "
         id="polygon102"
         style="fill:#f4aa69" /><polygon
         class="st8"
         points="521.5,188.1 521.5,143.7 551,157.3 551,201.7 "
         id="polygon104"
         style="fill:#db9364" /><polygon
         class="st9"
         points="521.5,232.6 521.5,188.1 551,201.7 551,246.2 "
         id="polygon106"
         style="fill:#f6b982" /><polygon
         class="st10"
         points="433,236.3 433,191.8 462.5,205.4 462.5,249.9 "
         id="polygon108"
         style="fill:#00a4da" /><polygon
         class="st7"
         points="433,280.7 433,236.3 462.5,249.9 462.5,294.3 "
         id="polygon110"
         style="fill:#f4aa69" /><polygon
         class="st11"
         points="462.5,249.9 462.5,205.4 492,219 492,263.5 "
         id="polygon112"
         style="fill:#008ed0" /><polygon
         class="st12"
         points="462.5,294.3 462.5,249.9 492,263.5 492,307.9 "
         id="polygon114"
         style="fill:#00b1bb" /><polygon
         class="st10"
         points="492,263.5 492,219 521.5,232.6 521.5,277.1 "
         id="polygon116"
         style="fill:#00a4da" /><polygon
         class="st7"
         points="492,307.9 492,263.5 521.5,277.1 521.5,321.5 "
         id="polygon118"
         style="fill:#f4aa69" /><polygon
         class="st11"
         points="521.5,277.1 521.5,232.6 551,246.2 551,290.7 "
         id="polygon120"
         style="fill:#008ed0" /><polygon
         class="st9"
         points="521.5,321.5 521.5,277.1 551,290.7 551,335.1 "
         id="polygon122"
         style="fill:#f6b982" /><polygon
         class="st6"
         points="433,325.2 433,280.7 462.5,294.3 462.5,338.8 "
         id="polygon124"
         style="fill:#e8ba98" /><polygon
         class="st7"
         points="433,369.7 433,325.2 462.5,338.8 462.5,383.3 "
         id="polygon126"
         style="fill:#f4aa69" /><polygon
         class="st11"
         points="462.5,338.8 462.5,294.3 492,307.9 492,352.4 "
         id="polygon128"
         style="fill:#008ed0" /><polygon
         class="st12"
         points="462.5,383.3 462.5,338.8 492,352.4 492,396.9 "
         id="polygon130"
         style="fill:#00b1bb" /><polygon
         class="st6"
         points="492,352.4 492,307.9 521.5,321.5 521.5,366 "
         id="polygon132"
         style="fill:#e8ba98" /><polygon
         class="st7"
         points="492,396.9 492,352.4 521.5,366 521.5,410.5 "
         id="polygon134"
         style="fill:#f4aa69" /><polygon
         class="st8"
         points="521.5,366 521.5,321.5 551,335.1 551,379.6 "
         id="polygon136"
         style="fill:#db9364" /><polygon
         class="st9"
         points="521.5,410.5 521.5,366 551,379.6 551,424 "
         id="polygon138"
         style="fill:#f6b982" /><polygon
         class="st6"
         points="433,414.1 433,369.7 462.5,383.3 462.5,427.7 "
         id="polygon140"
         style="fill:#e8ba98" /><polygon
         class="st7"
         points="433,458.6 433,414.1 462.5,427.7 462.5,472.2 "
         id="polygon142"
         style="fill:#f4aa69" /><polygon
         class="st8"
         points="462.5,427.7 462.5,383.3 492,396.9 492,441.3 "
         id="polygon144"
         style="fill:#db9364" /><polygon
         class="st9"
         points="462.5,472.2 462.5,427.7 492,441.3 492,485.8 "
         id="polygon146"
         style="fill:#f6b982" /><polygon
         class="st6"
         points="492,441.3 492,396.9 521.5,410.5 521.5,454.9 "
         id="polygon148"
         style="fill:#e8ba98" /><polygon
         class="st7"
         points="492,485.8 492,441.3 521.5,454.9 521.5,499.4 "
         id="polygon150"
         style="fill:#f4aa69" /><polygon
         class="st8"
         points="521.5,454.9 521.5,410.5 551,424 551,468.5 "
         id="polygon152"
         style="fill:#db9364" /><polygon
         class="st9"
         points="521.5,499.4 521.5,454.9 551,468.5 551,513 "
         id="polygon154"
         style="fill:#f6b982" /></g><g
       id="g222"><polygon
         class="st1"
         points="551,201.7 551,157.3 580.4,143.7 580.4,188.1 "
         id="polygon158"
         style="fill:#eeceb6" /><polygon
         class="st2"
         points="551,246.2 551,201.7 580.4,188.1 580.4,232.6 "
         id="polygon160"
         style="fill:#fdebd9" /><polygon
         class="st3"
         points="580.4,188.1 580.4,143.7 609.9,130.1 609.9,174.6 "
         id="polygon162"
         style="fill:#f5e4d6" /><polygon
         class="st4"
         points="580.4,232.6 580.4,188.1 609.9,174.6 609.9,219 "
         id="polygon164"
         style="fill:#fbdabb" /><polygon
         class="st1"
         points="609.9,174.6 609.9,130.1 639.4,116.5 639.4,161 "
         id="polygon166"
         style="fill:#eeceb6" /><polygon
         class="st2"
         points="609.9,219 609.9,174.6 639.4,161 639.4,205.4 "
         id="polygon168"
         style="fill:#fdebd9" /><polygon
         class="st3"
         points="639.4,161 639.4,116.5 668.9,102.9 668.9,147.4 "
         id="polygon170"
         style="fill:#f5e4d6" /><polygon
         class="st4"
         points="639.4,205.4 639.4,161 668.9,147.4 668.9,191.8 "
         id="polygon172"
         style="fill:#fbdabb" /><polygon
         class="st1"
         points="551,290.7 551,246.2 580.4,232.6 580.4,277.1 "
         id="polygon174"
         style="fill:#eeceb6" /><polygon
         class="st2"
         points="551,335.1 551,290.7 580.4,277.1 580.4,321.5 "
         id="polygon176"
         style="fill:#fdebd9" /><polygon
         class="st5"
         points="580.4,277.1 580.4,232.6 609.9,219 609.9,263.5 "
         id="polygon178"
         style="fill:#63ccee" /><polygon
         class="st13"
         points="580.4,321.5 580.4,277.1 609.9,263.5 609.9,307.9 "
         id="polygon180"
         style="fill:#4fc4ca" /><polygon
         class="st14"
         points="609.9,263.5 609.9,219 639.4,205.4 639.4,249.9 "
         id="polygon182"
         style="fill:#2ab8ea" /><polygon
         class="st2"
         points="609.9,307.9 609.9,263.5 639.4,249.9 639.4,294.3 "
         id="polygon184"
         style="fill:#fdebd9" /><polygon
         class="st5"
         points="639.4,249.9 639.4,205.4 668.9,191.8 668.9,236.3 "
         id="polygon186"
         style="fill:#63ccee" /><polygon
         class="st4"
         points="639.4,294.3 639.4,249.9 668.9,236.3 668.9,280.7 "
         id="polygon188"
         style="fill:#fbdabb" /><polygon
         class="st1"
         points="551,379.6 551,335.1 580.4,321.5 580.4,366 "
         id="polygon190"
         style="fill:#eeceb6" /><polygon
         class="st2"
         points="551,424 551,379.6 580.4,366 580.4,410.5 "
         id="polygon192"
         style="fill:#fdebd9" /><polygon
         class="st14"
         points="580.4,366 580.4,321.5 609.9,307.9 609.9,352.4 "
         id="polygon194"
         style="fill:#2ab8ea" /><polygon
         class="st13"
         points="580.4,410.5 580.4,366 609.9,352.4 609.9,396.9 "
         id="polygon196"
         style="fill:#4fc4ca" /><polygon
         class="st1"
         points="609.9,352.4 609.9,307.9 639.4,294.3 639.4,338.8 "
         id="polygon198"
         style="fill:#eeceb6" /><polygon
         class="st15"
         points="609.9,396.9 609.9,352.4 639.4,338.8 639.4,383.3 "
         id="polygon200"
         style="fill:#47b7b6" /><polygon
         class="st3"
         points="639.4,338.8 639.4,294.3 668.9,280.7 668.9,325.2 "
         id="polygon202"
         style="fill:#f5e4d6" /><polygon
         class="st13"
         points="639.4,383.3 639.4,338.8 668.9,325.2 668.9,369.7 "
         id="polygon204"
         style="fill:#4fc4ca" /><polygon
         class="st1"
         points="551,468.5 551,424 580.4,410.5 580.4,454.9 "
         id="polygon206"
         style="fill:#eeceb6" /><polygon
         class="st2"
         points="551,513 551,468.5 580.4,454.9 580.4,499.4 "
         id="polygon208"
         style="fill:#fdebd9" /><polygon
         class="st3"
         points="580.4,454.9 580.4,410.5 609.9,396.9 609.9,441.3 "
         id="polygon210"
         style="fill:#f5e4d6" /><polygon
         class="st4"
         points="580.4,499.4 580.4,454.9 609.9,441.3 609.9,485.8 "
         id="polygon212"
         style="fill:#fbdabb" /><polygon
         class="st1"
         points="609.9,441.3 609.9,396.9 639.4,383.3 639.4,427.7 "
         id="polygon214"
         style="fill:#eeceb6" /><polygon
         class="st2"
         points="609.9,485.8 609.9,441.3 639.4,427.7 639.4,472.2 "
         id="polygon216"
         style="fill:#fdebd9" /><polygon
         class="st3"
         points="639.4,427.7 639.4,383.3 668.9,369.7 668.9,414.1 "
         id="polygon218"
         style="fill:#f5e4d6" /><polygon
         class="st4"
         points="639.4,472.2 639.4,427.7 668.9,414.1 668.9,458.6 "
         id="polygon220"
         style="fill:#fbdabb" /></g><g
       id="g280"><polygon
         class="st6"
         points="679.3,118.3 679.3,73.9 708.8,87.5 708.8,131.9 "
         id="polygon224"
         style="fill:#e8ba98" /><polygon
         class="st7"
         points="668.9,191.8 668.9,147.4 698.4,161 698.4,205.4 "
         id="polygon226"
         style="fill:#f4aa69" /><polygon
         class="st12"
         points="713.1,188.1 713.1,143.7 742.6,157.3 742.6,201.7 "
         id="polygon228"
         style="fill:#00b1bb" /><polygon
         class="st6"
         points="746.4,102.9 746.4,58.4 775.9,72 775.9,116.5 "
         id="polygon230"
         style="fill:#e8ba98" /><polygon
         class="st7"
         points="767.9,248 767.9,203.6 797.4,217.2 797.4,261.6 "
         id="polygon232"
         style="fill:#f4aa69" /><polygon
         class="st8"
         points="805.5,147.4 805.5,102.9 835,116.5 835,161 "
         id="polygon234"
         style="fill:#db9364" /><polygon
         class="st11"
         points="668.9,236.3 668.9,191.8 698.4,205.4 698.4,249.9 "
         id="polygon236"
         style="fill:#008ed0" /><polygon
         class="st7"
         points="668.9,280.7 668.9,236.3 698.4,249.9 698.4,294.3 "
         id="polygon238"
         style="fill:#f4aa69" /><polygon
         class="st8"
         points="698.4,249.9 698.4,205.4 727.9,219 727.9,263.5 "
         id="polygon240"
         style="fill:#db9364" /><polygon
         class="st9"
         points="698.4,294.3 698.4,249.9 727.9,263.5 727.9,307.9 "
         id="polygon242"
         style="fill:#f6b982" /><polygon
         class="st7"
         points="727.9,307.9 727.9,263.5 757.4,277.1 757.4,321.5 "
         id="polygon244"
         style="fill:#f4aa69" /><polygon
         class="st8"
         points="810.3,316.2 810.3,271.7 839.8,285.3 839.8,329.8 "
         id="polygon246"
         style="fill:#db9364" /><polygon
         class="st6"
         points="668.9,325.2 668.9,280.7 698.4,294.3 698.4,338.8 "
         id="polygon248"
         style="fill:#e8ba98" /><polygon
         class="st12"
         points="668.9,369.7 668.9,325.2 698.4,338.8 698.4,383.3 "
         id="polygon250"
         style="fill:#00b1bb" /><polygon
         class="st8"
         points="698.4,338.8 698.4,294.3 727.9,307.9 727.9,352.4 "
         id="polygon252"
         style="fill:#db9364" /><polygon
         class="st9"
         points="698.4,383.3 698.4,338.8 727.9,352.4 727.9,396.9 "
         id="polygon254"
         style="fill:#f6b982" /><polygon
         class="st6"
         points="727.9,352.4 727.9,307.9 757.4,321.5 757.4,366 "
         id="polygon256"
         style="fill:#e8ba98" /><polygon
         class="st7"
         points="727.9,396.9 727.9,352.4 757.4,366 757.4,410.5 "
         id="polygon258"
         style="fill:#f4aa69" /><polygon
         class="st8"
         points="757.4,366 757.4,321.5 786.8,335.1 786.8,379.6 "
         id="polygon260"
         style="fill:#db9364" /><polygon
         class="st9"
         points="757.4,410.5 757.4,366 786.8,379.6 786.8,424 "
         id="polygon262"
         style="fill:#f6b982" /><polygon
         class="st6"
         points="668.9,414.1 668.9,369.7 698.4,383.3 698.4,427.7 "
         id="polygon264"
         style="fill:#e8ba98" /><polygon
         class="st7"
         points="668.9,458.6 668.9,414.1 698.4,427.7 698.4,472.2 "
         id="polygon266"
         style="fill:#f4aa69" /><polygon
         class="st8"
         points="698.4,427.7 698.4,383.3 727.9,396.9 727.9,441.3 "
         id="polygon268"
         style="fill:#db9364" /><polygon
         class="st9"
         points="698.4,472.2 698.4,427.7 727.9,441.3 727.9,485.8 "
         id="polygon270"
         style="fill:#f6b982" /><polygon
         class="st6"
         points="727.9,441.3 727.9,396.9 757.4,410.5 757.4,454.9 "
         id="polygon272"
         style="fill:#e8ba98" /><polygon
         class="st7"
         points="727.9,485.8 727.9,441.3 757.4,454.9 757.4,499.4 "
         id="polygon274"
         style="fill:#f4aa69" /><polygon
         class="st8"
         points="757.4,454.9 757.4,410.5 786.8,424 786.8,468.5 "
         id="polygon276"
         style="fill:#db9364" /><polygon
         class="st9"
         points="757.4,499.4 757.4,454.9 786.8,468.5 786.8,513 "
         id="polygon278"
         style="fill:#f6b982" /></g></g><text
     style="fill:black;fill-opacity:1;stroke:none;font-family:sans-serif;font-style:normal;font-weight:normal;font-size:119.99999934px;line-height:1.25;letter-spacing:0px;word-spacing:0px;white-space:pre;shape-inside:url(#rect1008);"
     id="text1006"
     xml:space="preserve" /><text
     id="text1026"
     y="322.77844"
     x="695.13348"
     style="font-style:normal;font-weight:normal;font-size:120px;line-height:1.25;font-family:sans-serif;letter-spacing:0px;word-spacing:0px;fill:#000000;fill-opacity:1;stroke:none;stroke-width:3"
     xml:space="preserve"><tspan
       style="stroke-width:3"
       y="322.77844"
       x="695.13348"
       id="tspan1024"
       sodipodi:role="line" /></text><text
     transform="translate(-14.162113,201.81168)"
     xml:space="preserve"
     id="text1018-7"
     style="font-style:normal;font-variant:normal;font-weight:bold;font-stretch:normal;font-size:56px;line-height:1.15;font-family:'Liberation Mono';-inkscape-font-specification:'Liberation Mono Bold';letter-spacing:0px;word-spacing:0px;white-space:pre;shape-inside:url(#rect1020-4);fill:#666666;fill-opacity:1;stroke:none;"><tspan
       x="668.8418"
       y="157.67269"><tspan
         style="font-size:48px">Modelling and forecasting tropical deforestation</tspan></tspan></text><text
     transform="translate(-30.029301,14.299651)"
     style="font-style:normal;font-variant:normal;font-weight:bold;font-stretch:normal;font-size:192px;line-height:1.15;font-family:'Liberation Mono';-inkscape-font-specification:'Liberation Mono Bold';letter-spacing:0px;word-spacing:0px;white-space:pre;shape-inside:url(#rect1020);fill:#666666;fill-opacity:1;stroke:none;"
     id="text1018"
     xml:space="preserve"><tspan
       x="668.8418"
       y="272.60448"><tspan
         style="font-style:normal;font-variant:normal;font-weight:normal;font-stretch:normal;font-size:192px;font-family:'Liberation Mono';-inkscape-font-specification:'Liberation Mono';word-spacing:0.03px;fill:#666666;fill-opacity:1">FORESTATRISK</tspan></tspan></text></svg>
